<?xml version="1.0" encoding="UTF-8"?>
<svg xmlns="http://www.w3.org/2000/svg" viewBox="900 0 300 367.9">
  <defs>
    <style>.d{fill:#fff;}.e{fill:#05d4b7;}</style>
  </defs>
  <g>
    <g>
      <path class="e" d="M1124.24,170.21h-197.9c-8.22,0-14.89-6.67-14.89-14.89h0c0-8.22,6.67-14.89,14.89-14.89h198.2c24.99,0,46.1-20.45,45.67-45.43-.41-24.28-20.29-43.9-44.66-43.9-20.78,0-38.29,14.26-43.26,33.52-1.67,6.49-7.32,11.15-14.02,11.15h-.74c-9.37,0-16.5-8.74-14.26-17.84,8.01-32.46,37.38-56.6,72.28-56.6,40.61,0,73.74,32.69,74.43,73.15,.71,41.65-34.1,75.74-75.75,75.74Z"/>
      <path class="e" d="M1062.51,286.85h-136.17c-8.22,0-14.89-6.67-14.89-14.89h0c0-8.22,6.67-14.89,14.89-14.89h136.66c7.92,0,14.85-5.96,15.38-13.87,.58-8.67-6.31-15.91-14.86-15.91-5.47,0-10.25,2.96-12.84,7.36-2.71,4.61-7.58,7.53-12.93,7.53h0c-11.45,0-18.65-12.41-12.91-22.32,7.73-13.35,22.17-22.35,38.68-22.35,24.37,0,44.25,19.62,44.66,43.9,.42,24.98-20.69,45.43-45.67,45.43Z"/>
      <path class="e" d="M963.54,111.88h-37.19c-8.22,0-14.89-6.67-14.89-14.89h0c0-8.22,6.67-14.89,14.89-14.89h37.55c14.07,0,26.2-10.79,26.89-24.84,.74-15.02-11.27-27.48-26.13-27.48-11.06,0-20.54,6.9-24.36,16.62-2.25,5.73-7.72,9.54-13.88,9.54h0c-10.52,0-17.69-10.61-13.84-20.4C920.73,14.76,941,0,964.65,0c30.52,0,55.41,24.57,55.93,54.97,.53,31.29-25.75,56.91-57.04,56.91Z"/>
      <rect class="e" x="911.46" y="198.75" width="79.06" height="29.78" rx="14.89" ry="14.89"/>
    </g>
  </g>
</svg>
